<svg width="512" height="512" viewBox="0 0 512 512" fill="none" xmlns="http://www.w3.org/2000/svg">
<rect width="512" height="512" rx="100" fill="#007FFF"/>
<path d="M163.922 398V334.719H238.141C253.375 334.719 265.94 332.245 275.836 327.297C285.862 322.349 293.479 314.146 298.688 302.688C303.896 291.229 306.5 275.865 306.5 256.594C306.5 237.062 303.896 221.568 298.688 210.109C293.479 198.651 285.732 190.513 275.445 185.695C265.159 180.878 252.138 178.469 236.383 178.469H162.75V115.188H239.898C268.935 115.188 294.065 120.852 315.289 132.18C336.643 143.508 352.984 159.784 364.312 181.008C375.771 202.232 381.5 227.427 381.5 256.594C381.5 285.76 375.771 310.956 364.312 332.18C352.984 353.404 336.708 369.68 315.484 381.008C294.391 392.336 269.521 398 240.875 398H163.922ZM207.672 398H133.453V115.188H207.672V398Z" fill="white"/>
</svg>
