<svg xmlns="http://www.w3.org/2000/svg" viewBox="0 0 209.74 209.74"><defs><linearGradient id="a" x1="30.72" y1="30.72" x2="179.02" y2="179.02" gradientUnits="userSpaceOnUse"><stop offset="0" stop-color="#368bcb"/><stop offset="1" stop-color="#ad99c8"/></linearGradient></defs><g><path d="M103.03 151.24c-3.84 0-7.68-1.46-10.61-4.39L54.5 108.93c-5.86-5.86-5.86-15.35 0-21.21 5.86-5.86 15.36-5.86 21.21 0l27.32 27.31 57.68-57.68c5.86-5.86 15.36-5.86 21.21 0 5.86 5.86 5.86 15.35 0 21.21l-68.28 68.28a14.953 14.953 0 0 1-10.61 4.39z" style="stroke-width:0;fill:#368bcb"/><path d="M104.87 0C46.95 0 0 46.95 0 104.87s46.95 104.87 104.87 104.87 104.87-46.95 104.87-104.87S162.79 0 104.87 0zm75.2 104.87c0 41.53-33.67 75.2-75.2 75.2s-75.2-33.67-75.2-75.2 33.67-75.2 75.2-75.2c19.31 0 36.92 7.29 50.24 19.25 9.82-8.38 24.59-7.94 33.88 1.35 9.76 9.76 9.76 25.59 0 35.36l-9.56 9.56c.41 3.17.64 6.39.64 9.67z" style="fill:url(#a);stroke-width:0"/></g></svg>